<svg xmlns="http://www.w3.org/2000/svg" viewBox="0 0 85.99 66.15" height="250" width="325">
  <g fill-rule="evenodd">
    <path d="M0 0h85.99v6.61H0z" opacity=".94" fill="#1e1e1e"/>
    <path d="M5.3 3.3a1.32 1.32 0 0 1-1.33 1.33 1.32 1.32 0 0 1-1.32-1.32 1.32 1.32 0 0 1 1.32-1.33 1.32 1.32 0 0 1 1.32 1.33z" opacity=".77" fill="#fc625d"/>
    <path d="M9.47 3.3a1.32 1.32 0 0 1-1.32 1.33 1.32 1.32 0 0 1-1.32-1.32 1.32 1.32 0 0 1 1.32-1.33 1.32 1.32 0 0 1 1.32 1.33z" opacity=".77" fill="#fdbe41"/>
    <path d="M13.65 3.3a1.32 1.32 0 0 1-1.32 1.33A1.32 1.32 0 0 1 11 3.31a1.32 1.32 0 0 1 1.32-1.33 1.32 1.32 0 0 1 1.32 1.33z" opacity=".77" fill="#35cc4b"/>
    <path d="M0 6.61h85.99v59.91H0z" opacity=".77" fill="#fe007a"/>
  </g>
</svg>
