<svg xmlns="http://www.w3.org/2000/svg" width="325" height="250" viewBox="0 0 85.99 66.15">
  <g transform="translate(0 -230.85)">
    <path d="M0 237.05h85.99v60.33H0z" fill="#303030" fill-rule="evenodd"/>
    <rect width="36.38" height="20.24" x="3.97" y="247.66" ry="1.34" rx="1.84" fill="none" stroke="#faa35f" stroke-width="2.65"/>
    <g aria-label="Round 1" style="line-height:125%;-inkscape-font-specification:'sans-serif Bold';text-align:center" font-weight="700" font-size="18.83" font-family="sans-serif" letter-spacing="0" word-spacing="0" text-anchor="middle" fill="#f6f6f6" stroke-width=".99">
      <path d="M33.42 241.4q.3 0 .42-.11.13-.11.13-.37t-.13-.37q-.13-.1-.42-.1h-.4v.95zm-.4.67v1.41h-.93v-3.74h1.43q.72 0 1.05.25.33.25.33.78 0 .38-.17.61-.17.24-.52.35.19.05.34.2.15.17.3.49l.52 1.06h-1l-.44-.93q-.14-.28-.28-.38-.13-.1-.36-.1zM37.18 241.25q-.29 0-.44.22-.15.2-.15.61 0 .4.15.62.15.21.44.21.28 0 .43-.21.16-.22.16-.62t-.16-.61q-.15-.22-.43-.22zm0-.64q.7 0 1.1.39.4.4.4 1.08 0 .7-.4 1.08-.4.4-1.1.4-.7 0-1.1-.4-.4-.39-.4-1.08 0-.69.4-1.08.4-.39 1.1-.39zM39.28 242.39v-1.71h.87v1.31q0 .34.02.49.01.15.06.21.05.09.13.14.1.05.2.05.28 0 .43-.22.16-.22.16-.6v-1.38h.87v2.8h-.87v-.4q-.2.24-.42.36-.22.11-.48.11-.48 0-.73-.3-.24-.3-.24-.86zM45.6 241.77v1.71h-.88v-1.31l-.01-.5q-.02-.13-.06-.2-.05-.09-.13-.13-.1-.05-.2-.05-.28 0-.43.21-.16.22-.16.6v1.38h-.87v-2.8h.87v.4q.2-.24.42-.35.22-.12.49-.12.47 0 .71.3.25.3.25.86zM48.27 241.09v-1.5h.87v3.9h-.87v-.41q-.18.24-.4.36-.22.11-.5.11-.5 0-.83-.4-.32-.42-.32-1.07 0-.65.32-1.06.33-.41.83-.41.28 0 .5.12.22.11.4.36zm-.58 1.81q.28 0 .43-.2.15-.22.15-.62t-.15-.6q-.15-.22-.43-.22-.27 0-.42.21-.15.21-.15.61t.15.61q.15.21.42.21zM51.88 242.82h.83v-2.42l-.85.18v-.66l.84-.18h.9v3.08h.82v.66h-2.54z" style="-inkscape-font-specification:'sans-serif Bold';text-align:center"/>
    </g>
    <rect rx="1.84" ry="1.34" y="273.19" x="3.97" height="20.24" width="36.38" fill="none" stroke="#4373a2" stroke-width="2.65"/>
    <rect rx="1.84" ry="1.34" y="247.66" x="45.64" height="20.24" width="36.38" fill="none" stroke="#fa595c" stroke-width="2.65"/>
    <rect width="36.38" height="20.24" x="45.64" y="273.19" ry="1.34" rx="1.84" fill="none" stroke="#44b176" stroke-width="2.65"/>
    <path d="M6.35 238.88l-2.38 1.37H2.65v2.65h1.32v-.01l2.38 1.37v-2.69zm.62 1.47a.26.26 0 0 0-.09.51.77.77 0 0 1 0 1.42.26.26 0 1 0 .22.48 1.3 1.3 0 0 0 0-2.38.26.26 0 0 0-.13-.03z" fill="#f6f6f6" fill-rule="evenodd"/>
  </g>
  <g fill-rule="evenodd">
    <path d="M0 0h85.99v6.61H0z" fill="#1e1e1e"/>
    <path d="M5.3 3.3a1.32 1.32 0 0 1-1.33 1.33 1.32 1.32 0 0 1-1.32-1.32 1.32 1.32 0 0 1 1.32-1.33 1.32 1.32 0 0 1 1.32 1.33z" fill="#fc625d"/>
    <path d="M9.47 3.3a1.32 1.32 0 0 1-1.32 1.33 1.32 1.32 0 0 1-1.32-1.32 1.32 1.32 0 0 1 1.32-1.33 1.32 1.32 0 0 1 1.32 1.33z" fill="#fdbe41"/>
    <path d="M13.65 3.3a1.32 1.32 0 0 1-1.32 1.33A1.32 1.32 0 0 1 11 3.31a1.32 1.32 0 0 1 1.32-1.33 1.32 1.32 0 0 1 1.32 1.33z" fill="#35cc4b"/>
  </g>
</svg>
