<?xml version="1.0" encoding="UTF-8" standalone="no"?>
<svg
   xmlns:osb="http://www.openswatchbook.org/uri/2009/osb"
   xmlns:dc="http://purl.org/dc/elements/1.1/"
   xmlns:cc="http://creativecommons.org/ns#"
   xmlns:rdf="http://www.w3.org/1999/02/22-rdf-syntax-ns#"
   xmlns:svg="http://www.w3.org/2000/svg"
   xmlns="http://www.w3.org/2000/svg"
   id="svg8"
   version="1.1"
   viewBox="0 0 270.93332 270.93334"
   height="1024"
   width="1024">
  <defs
     id="defs2">
    <linearGradient
       osb:paint="solid"
       id="linearGradient7213">
      <stop
         id="stop7211"
         offset="0"
         style="stop-color:#000000;stop-opacity:1;" />
    </linearGradient>
  </defs>
  <metadata
     id="metadata5">
    <rdf:RDF>
      <cc:Work
         rdf:about="">
        <dc:format>image/svg+xml</dc:format>
        <dc:type
           rdf:resource="http://purl.org/dc/dcmitype/StillImage" />
        <dc:title></dc:title>
      </cc:Work>
    </rdf:RDF>
  </metadata>
  <g
     transform="translate(0,135.46667)"
     id="layer2">
    <path
       id="path6091"
       d="m 135.46666,-109.00834 c -60.093947,0 -109.008327,48.914383 -109.008327,109.00833496 0,28.90725004 11.487256,56.64005504 31.927768,77.08056404 20.440509,20.440512 48.173309,31.927771 77.080559,31.927771 13.77335,0 27.42201,-2.61026 40.22339,-7.69256 a 9.2613426,9.2613426 0 1 0 -6.83369,-17.213934 c -10.62655,4.218869 -21.95631,6.385658 -33.3897,6.385658 -24.00233,0 -47.011989,-9.531078 -63.984203,-26.503291 C 54.510243,47.011989 44.979166,24.002331 44.979166,-5.04e-6 c 0,-50.08455296 40.402946,-90.48749896 90.487494,-90.48749896 11.45081,0 22.79744,2.173396 33.43776,6.404777 a 9.2613426,9.2613426 0 1 0 6.84402,-17.209803 c -12.81796,-5.09738 -26.48745,-7.71581 -40.28178,-7.71581 z"
       style="color:#000000;font-style:normal;font-variant:normal;font-weight:normal;font-stretch:normal;font-size:medium;line-height:normal;font-family:sans-serif;font-variant-ligatures:normal;font-variant-position:normal;font-variant-caps:normal;font-variant-numeric:normal;font-variant-alternates:normal;font-feature-settings:normal;text-indent:0;text-align:start;text-decoration:none;text-decoration-line:none;text-decoration-style:solid;text-decoration-color:#000000;letter-spacing:normal;word-spacing:normal;text-transform:none;writing-mode:lr-tb;direction:ltr;text-orientation:mixed;dominant-baseline:auto;baseline-shift:baseline;text-anchor:start;white-space:normal;shape-padding:0;clip-rule:nonzero;display:inline;overflow:visible;visibility:visible;opacity:1;isolation:auto;mix-blend-mode:normal;color-interpolation:sRGB;color-interpolation-filters:linearRGB;solid-color:#000000;solid-opacity:1;vector-effect:none;fill:rgb(255, 145, 81);fill-opacity:1;fill-rule:nonzero;stroke:none;stroke-width:18.52083397;stroke-linecap:round;stroke-linejoin:round;stroke-miterlimit:4;stroke-dasharray:none;stroke-dashoffset:0;stroke-opacity:1;color-rendering:auto;image-rendering:auto;shape-rendering:auto;text-rendering:auto;enable-background:accumulate" />
    <path
       id="circle6093"
       transform="matrix(0.26458333,0,0,0.26458333,0,-135.46667)"
       d="M 512 240 C 390.25412 240 283.02934 321.26794 250.12305 438.48242 A 35.0035 35.0035 0 1 0 317.51758 457.40234 C 338.81594 381.53611 401.45246 326.24078 477 313.03711 L 477 755.65625 C 477 771.35835 492.61 784 512 784 C 531.39 784 547 771.35835 547 755.65625 L 547 313.03711 C 622.56201 326.24329 685.20542 381.55742 706.49219 457.44336 A 35.0035 35.0035 0 1 0 773.89062 438.53711 C 741.00318 321.29553 633.76689 240 512 240 z "
       style="color:#000000;font-style:normal;font-variant:normal;font-weight:normal;font-stretch:normal;font-size:medium;line-height:normal;font-family:sans-serif;font-variant-ligatures:normal;font-variant-position:normal;font-variant-caps:normal;font-variant-numeric:normal;font-variant-alternates:normal;font-feature-settings:normal;text-indent:0;text-align:start;text-decoration:none;text-decoration-line:none;text-decoration-style:solid;text-decoration-color:#000000;letter-spacing:normal;word-spacing:normal;text-transform:none;writing-mode:lr-tb;direction:ltr;text-orientation:mixed;dominant-baseline:auto;baseline-shift:baseline;text-anchor:start;white-space:normal;shape-padding:0;clip-rule:nonzero;display:inline;overflow:visible;visibility:visible;opacity:1;isolation:auto;mix-blend-mode:normal;color-interpolation:sRGB;color-interpolation-filters:linearRGB;solid-color:#000000;solid-opacity:1;vector-effect:none;fill:rgb(255, 145, 81);fill-opacity:1;fill-rule:nonzero;stroke:none;stroke-width:70;stroke-linecap:round;stroke-linejoin:round;stroke-miterlimit:4;stroke-dasharray:none;stroke-dashoffset:0;stroke-opacity:1;color-rendering:auto;image-rendering:auto;shape-rendering:auto;text-rendering:auto;enable-background:accumulate" />
  </g>
</svg>
